<?xml version="1.0" encoding="utf-8"?>
<!-- Generator: Adobe Illustrator 21.1.0, SVG Export Plug-In . SVG Version: 6.00 Build 0)  -->
<svg version="1.1" xmlns="http://www.w3.org/2000/svg" xmlns:xlink="http://www.w3.org/1999/xlink" x="0px" y="0px"
	 viewBox="0 0 130.7 94.4" style="enable-background:new 0 0 130.7 94.4;" xml:space="preserve">
<style type="text/css">
	.st0{fill:#1A6DB6;}
	.st1{fill:#F1F2F2;}
</style>
<g id="Layer_2">
</g>
<g id="Layer_1">
	<g id="_x31_5_8_">
		<polygon class="st1" points="38.5,75.7 47.9,75.7 58.5,56.8 53.7,48.9 		"/>
		<polygon class="st1" points="31.8,84.5 35.8,77.3 36,76.9 36.1,76.8 36.2,76.6 36.3,76.4 34,72.3 30.8,66.6 20.1,47.3 31,28.1 
			36.4,18.7 36.4,18.7 36,18 35.5,17 31.8,10.5 10.7,47.3 		"/>
		<polygon class="st1" points="58.9,38.2 48.1,19.6 38.8,19.6 45.7,31.8 53.7,45.8 		"/>
		<polygon class="st1" points="37.2,78 33.1,85.3 85.6,85.3 81.2,77.3 48.8,77.3 37.6,77.3 		"/>
		<polygon class="st1" points="32.9,67 32.9,67 37.2,74.8 52.3,48.1 52.1,48.1 43.5,48.1 		"/>
		<polygon class="st1" points="31.3,8.1 88.8,8.1 82.1,19.6 70.9,39 60.3,39 58.4,41.9 55.2,46.5 75.8,46.5 75.8,46.5 102.6,0 
			26.7,0 0,46.5 9.3,46.5 		"/>
		<polygon class="st1" points="109.9,48.1 99.2,66.5 104,74.9 108.6,66.8 119.1,48.2 		"/>
		<polygon class="st1" points="109.9,46.5 119.1,46.6 119.1,46.6 119.1,46.6 104,20.3 99.4,28.1 		"/>
		<polygon class="st1" points="52.3,46.5 37.3,20.3 32.9,28.1 43.5,46.5 		"/>
		<polygon class="st1" points="55.1,48.1 59.8,55.9 71.3,55.9 82.2,75.7 82.2,75.7 88.3,86.9 31.3,86.9 9.3,48.1 0,48.1 26.7,94.4 
			102.4,94.4 75.8,48.1 		"/>
		<polygon class="st1" points="86,9.7 33.1,9.7 37.8,18 81.2,18 		"/>
		<path class="st1" d="M104,17.2l12.1,21l5.3,9.2l-7.3,12.8l-10.2,18l0,0l0,0l-5.7-9.9l-1.2-2L86.4,47.2l11.2-19.1l0.6-0.9L104,17.2
			L104,17.2L104,17.2z M103.8,93.6l26.9-46.3L104,0.8L77.1,47.3L103.8,93.6z"/>
		<polygon class="st1" points="120.1,46.6 120.1,46.6 120.1,46.6 120.1,46.6 		"/>
	</g>
</g>
</svg>
